<svg width="206" height="206" viewBox="0 0 206 206" fill="none" xmlns="http://www.w3.org/2000/svg">
<g clip-path="url(#clip0_17_80)">
<path d="M110.532 107.635C118.579 126.207 139.565 136.539 159.65 130.585L174.746 172.042L151.796 180.379C150.444 180.862 149.768 182.342 150.251 183.694C150.734 185.046 152.215 185.722 153.567 185.239C170.465 179.091 187.396 172.943 204.294 166.763C205.646 166.281 206.322 164.8 205.839 163.448C205.356 162.096 203.876 161.42 202.524 161.903L179.606 170.304L164.51 128.847C186.784 119.158 195.925 91.9597 183.469 70.6516L157.204 25.7178C154.693 21.4047 149.479 19.5378 144.779 21.2438L117.034 31.3185C118.032 32.7669 118.836 34.2797 119.512 35.8891L146.55 26.0397C148.899 25.2028 151.507 26.1363 152.762 28.2928L168.019 54.3969L116.937 73.0013L115.939 78.8594L170.658 58.9353L179.027 73.2588C190.293 92.5391 181.344 117.323 160.358 124.984C139.372 132.645 116.583 119.383 112.817 97.3672L112.785 97.2385L112.206 100.618C111.787 103.032 111.24 105.382 110.532 107.667V107.635ZM26.9731 73.2588L35.3419 58.9353L95.9831 81.016L93.1828 97.3672C89.4169 119.351 66.6281 132.613 45.6419 124.952C24.6556 117.291 15.7075 92.5391 26.9731 73.2266V73.2588ZM96.8522 75.866L37.9813 54.4291L53.2381 28.2928C54.4934 26.1363 57.1006 25.2028 59.4503 26.0397L98.6225 40.331C100.972 41.1678 102.356 43.5819 101.938 46.0281L96.8522 75.8338V75.866ZM98.2684 98.2363L107.023 46.8972C107.86 42.0047 105.06 37.1766 100.393 35.4706L61.2206 21.2116C56.5534 19.5056 51.3069 21.4047 48.7963 25.6856L22.5313 70.6516C10.0747 91.9597 19.2159 119.158 41.4897 128.847L26.3938 170.304L3.44407 161.968C2.09219 161.485 0.643754 162.161 0.128754 163.513C-0.386246 164.864 0.321879 166.313 1.67375 166.828C18.5722 172.976 35.5028 179.123 52.4013 185.303C53.7531 185.786 55.2016 185.11 55.7166 183.758C56.2316 182.407 55.5234 180.958 54.1716 180.443L31.2219 172.074L46.3178 130.617C69.6216 137.505 94.0841 122.57 98.2363 98.2363H98.2684Z" fill="white"/>
</g>
<defs>
<clipPath id="clip0_17_80">
<rect width="206" height="206" fill="white"/>
</clipPath>
</defs>
</svg>
